# xmcd
#
# Track frame offsets:
#	150
#	16996
#	32327
#	45460
#	63736
#	81530
#	100298
#	118115
#	133832
#	153591
#	173085
#	189406
#	206832
#	230486
#	249077
#	266508
#	284809
#	301061
#	321100
#	346840
#
# Disc length: 4826 seconds
#
# Revision: 0
# Processed by: cddbd v1.5.1PL0 Copyright (c) Steve Scherf et al.
# Submitted via: dBpowerAMP V4.0
#
DISCID=1d12d814
DTITLE=George Benson - The Very Best Of - The Greatest Hits Of All
DYEAR=2003
DGENRE=Easy Listening
TTITLE0=Give Me The Night
TTITLE1=Turn Your Love Around
TTITLE2=Never Give Up On A Good Thing
TTITLE3=Love X Love
TTITLE4=Nothing's Gonna Change My Love For You
TTITLE5=The Greates Love Of All
TTITLE6=Feel like Making Love
TTITLE7=Breezin'
TTITLE8=This Masquerade
TTITLE9=In Your Eyes
TTITLE10=You Are The Love Of My Life (With Roberta Flack)
TTITLE11=Lady Love Me (One More Time)
TTITLE12=Kisses In The Moonlight
TTITLE13=Love All The Hurt Away (With Aretha Franklin)
TTITLE14=Being With You
TTITLE15=Moody's Mood (With Patti Austin)
TTITLE16=Nature Boy
TTITLE17=Love Ballad
TTITLE18=Shiver
TTITLE19=On Broadway (Live)
EXTD=
EXTT0=
EXTT1=
EXTT2=
EXTT3=
EXTT4=
EXTT5=
EXTT6=
EXTT7=
EXTT8=
EXTT9=
EXTT10=
EXTT11=
EXTT12=
EXTT13=
EXTT14=
EXTT15=
EXTT16=
EXTT17=
EXTT18=
EXTT19=
PLAYORDER=
